# xmcd CD database file
#
# Track frame offsets:
#	150
#	12290
#	25865
#	38374
#	51304
#	66620
#	80049
#	91015
#	102703
#	114716
#	126981
#	137770
#	154598
#	169015
#	179052
#	190631
#	206246
#	216882
#	232399
#	244649
#
# Disc length: 3411 seconds
#
# Revision: 0
# Processed by: cddbd v1.5.2PL0 Copyright (c) Steve Scherf et al.
# Submitted via: ACXtractor (MTCDDB.DLL V2003.07.15)
#
DISCID=260d5114
DTITLE=Buudy Williams - Big Banana Land
DYEAR=1989
DGENRE=Country
TTITLE0=I'm Moving Out
TTITLE1=Jacaranda Blue
TTITLE2=On the Gundagai Line
TTITLE3=Precious Memories
TTITLE4=Pretty Girl
TTITLE5=Sugar Cane Country
TTITLE6=Take me Back
TTITLE7=The Big Banana Land
TTITLE8=The Blue Mountains of the Maclea
TTITLE9=The Buggy and Pair
TTITLE10=The Echo Mountain Song
TTITLE11=The Hills of Old Hickey's
TTITLE12=The Little Banana Boy
TTITLE13=The Mighty Moonbi Range
TTITLE14=The Old south Wind
TTITLE15=Toy Telephone
TTITLE16=Way up North
TTITLE17=When Jesus Calls
TTITLE18=White Backed Swallow
TTITLE19=Who can make a Flower
EXTD=ID3G:   2 YEAR: 1989
EXTT0=
EXTT1=
EXTT2=
EXTT3=
EXTT4=
EXTT5=
EXTT6=
EXTT7=
EXTT8=
EXTT9=
EXTT10=
EXTT11=
EXTT12=
EXTT13=
EXTT14=
EXTT15=
EXTT16=
EXTT17=
EXTT18=
EXTT19=
PLAYORDER=
